<?xml version="1.0" encoding="UTF-8"?>
<svg xmlns="http://www.w3.org/2000/svg" xmlns:xlink="http://www.w3.org/1999/xlink" width="1190.25pt" height="1683.749945pt" viewBox="0 0 1190.25 1683.749945" version="1.2">
<defs>
<clipPath id="clip1">
  <path d="M 0 0.40625 L 1189.5 0.40625 L 1189.5 1683.09375 L 0 1683.09375 Z M 0 0.40625 "/>
</clipPath>
</defs>
<g id="surface1">
<g clip-path="url(#clip1)" clip-rule="nonzero">
<path style=" stroke:none;fill-rule:nonzero;fill:rgb(100%,100%,100%);fill-opacity:1;" d="M 0 0.40625 L 1192.25 0.40625 L 1192.25 1694.296875 L 0 1694.296875 Z M 0 0.40625 "/>
<path style=" stroke:none;fill-rule:nonzero;fill:rgb(100%,100%,100%);fill-opacity:1;" d="M 0 0.40625 L 1190 0.40625 L 1190 1683.800781 L 0 1683.800781 Z M 0 0.40625 "/>
<path style=" stroke:none;fill-rule:nonzero;fill:rgb(94.509888%,94.119263%,94.119263%);fill-opacity:1;" d="M 0 0.40625 L 1190 0.40625 L 1190 1683.800781 L 0 1683.800781 Z M 0 0.40625 "/>
</g>
<path style=" stroke:none;fill-rule:nonzero;fill:rgb(0%,0%,0%);fill-opacity:1;" d="M 1021.253906 790.554688 C 1015.507812 784.042969 1008.617188 786.914062 1002.492188 791.320312 C 993.300781 798.019531 984.113281 804.914062 974.921875 811.421875 C 939.886719 835.734375 915.574219 834.777344 881.878906 807.976562 C 866.753906 795.914062 855.265625 780.789062 846.460938 763.75 C 829.613281 731.585938 817.550781 697.507812 811.617188 661.707031 C 803.382812 611.164062 796.683594 560.429688 788.257812 509.886719 C 777.539062 446.519531 753.414062 390.421875 703.828125 346.199219 C 632.417969 282.636719 539.757812 312.121094 508.550781 370.511719 C 504.53125 378.171875 497.0625 376.832031 490.746094 378.746094 C 470.261719 384.871094 449.585938 380.085938 429.097656 380.851562 C 391.957031 382 361.515625 400.570312 331.269531 419.90625 C 209.316406 498.019531 169.492188 621.886719 222.523438 756.859375 C 244.542969 812.570312 277.664062 862.347656 304.273438 915.378906 C 318.632812 943.90625 330.503906 973.003906 335.097656 1004.785156 C 342.179688 1055.902344 303.316406 1111.230469 241.285156 1103.574219 C 222.90625 1101.277344 204.910156 1098.214844 187.871094 1090.9375 C 180.40625 1087.683594 172.9375 1083.855469 168.152344 1092.660156 C 162.984375 1102.042969 167.769531 1109.890625 176.578125 1114.871094 C 192.085938 1123.867188 209.316406 1128.652344 226.546875 1132.292969 C 301.976562 1147.988281 365.539062 1096.488281 365.921875 1019.527344 C 366.113281 969.558594 344.09375 926.675781 321.503906 883.789062 C 295.085938 833.4375 261.964844 786.339844 245.308594 731.203125 C 223.097656 656.921875 223.671875 584.9375 270.003906 518.503906 C 301.976562 472.554688 347.160156 442.304688 395.59375 416.269531 C 401.339844 413.207031 408.039062 409.953125 417.613281 412.058594 C 390.234375 434.839844 367.835938 460.492188 346.96875 487.296875 C 315.378906 527.882812 298.339844 574.023438 295.851562 625.714844 C 291.636719 713.972656 322.84375 791.511719 370.132812 862.921875 C 414.546875 930.121094 476.003906 969.558594 560.242188 962.285156 C 571.347656 961.328125 575.558594 964.773438 577.664062 975.875 C 586.472656 1022.015625 597.382812 1067.582031 614.421875 1111.421875 C 618.25 1121.378906 619.78125 1137.269531 635.480469 1132.867188 C 651.179688 1128.460938 643.332031 1114.105469 642.183594 1103.574219 C 641.417969 1097.257812 639.121094 1091.320312 637.585938 1085.195312 C 627.824219 1048.4375 618.824219 1011.488281 608.105469 975.109375 C 603.703125 960.179688 606.957031 954.816406 622.082031 950.222656 C 687.363281 929.738281 737.332031 890.300781 766.816406 827.3125 C 786.917969 784.042969 789.597656 738.289062 785.578125 689.46875 C 792.660156 696.742188 792.46875 704.210938 794.578125 710.71875 C 805.679688 743.839844 816.976562 777.34375 839.757812 804.339844 C 901.214844 877.472656 959.414062 871.34375 1018.382812 811.039062 C 1023.742188 804.722656 1027.378906 797.636719 1021.253906 790.554688 Z M 584.363281 926.101562 C 507.785156 940.839844 448.625 916.527344 404.59375 856.988281 C 359.601562 796.105469 328.972656 728.332031 327.246094 650.222656 C 326.480469 614.800781 331.269531 580.339844 346.777344 548.5625 C 373.769531 493.421875 413.015625 448.433594 464.132812 414.355469 C 483.085938 401.71875 504.339844 397.125 527.3125 398.273438 C 545.308594 399.230469 563.113281 396.742188 581.492188 400.378906 C 631.269531 410.527344 664.582031 442.304688 691.386719 481.9375 C 737.523438 550.09375 754.753906 627.246094 760.117188 728.523438 C 766.816406 826.929688 686.023438 906.570312 584.363281 926.101562 Z M 771.601562 602.359375 C 768.347656 591.0625 765.09375 579.574219 761.648438 568.28125 C 744.800781 512.953125 718.378906 463.367188 676.644531 422.203125 C 640.269531 386.402344 597.191406 369.363281 546.648438 369.171875 C 559.476562 348.878906 600.445312 334.328125 627.058594 339.878906 C 674.15625 349.835938 704.210938 381.425781 727.761719 420.480469 C 752.457031 461.453125 759.925781 507.972656 767.199219 554.496094 C 769.6875 570.386719 771.792969 586.085938 774.089844 601.976562 C 773.324219 601.976562 772.367188 602.167969 771.601562 602.359375 Z M 613.65625 749.582031 C 612.890625 762.21875 611.742188 774.664062 609.253906 787.105469 C 596.808594 849.710938 531.714844 851.625 497.828125 819.269531 C 471.027344 793.808594 458.390625 761.070312 456.476562 724.3125 C 455.902344 714.929688 458.007812 705.167969 469.113281 704.402344 C 480.597656 703.636719 482.894531 713.589844 483.855469 722.78125 C 486.535156 744.414062 494.191406 764.324219 505.296875 783.085938 C 512.378906 794.957031 521.953125 803.570312 534.96875 808.359375 C 554.308594 815.25 570.582031 808.167969 577.089844 789.023438 C 585.320312 764.707031 588.195312 739.628906 584.554688 714.164062 C 583.597656 707.464844 583.023438 700.953125 590.683594 698.273438 C 598.914062 695.402344 604.085938 700.761719 607.339844 707.082031 C 614.613281 720.101562 613.65625 735.03125 613.65625 749.582031 Z M 619.78125 564.453125 C 620.546875 576.703125 604.851562 592.59375 593.363281 591.828125 C 580.726562 591.0625 576.898438 582.066406 575.75 571.152344 C 575.367188 556.984375 586.085938 543.199219 598.339844 543.199219 C 612.125 543.199219 619.015625 551.625 619.78125 564.453125 Z M 445.371094 589.339844 C 431.777344 589.914062 427.566406 579.957031 425.652344 568.855469 C 426.417969 556.410156 431.777344 547.796875 444.988281 547.988281 C 457.050781 548.179688 463.558594 556.21875 463.558594 567.515625 C 463.558594 578.808594 458.582031 588.765625 445.371094 589.339844 Z M 445.371094 589.339844 "/>
</g>
</svg>
