<?xml version="1.0" encoding="UTF-8"?>
<svg xmlns="http://www.w3.org/2000/svg" xmlns:xlink="http://www.w3.org/1999/xlink" width="1190.25pt" height="1683.749945pt" viewBox="0 0 1190.25 1683.749945" version="1.2">
<defs>
<clipPath id="clip1">
  <path d="M 0 0.40625 L 1189.5 0.40625 L 1189.5 1683.09375 L 0 1683.09375 Z M 0 0.40625 "/>
</clipPath>
</defs>
<g id="surface1">
<g clip-path="url(#clip1)" clip-rule="nonzero">
<path style=" stroke:none;fill-rule:nonzero;fill:rgb(100%,100%,100%);fill-opacity:1;" d="M 0 0.40625 L 1192.25 0.40625 L 1192.25 1694.296875 L 0 1694.296875 Z M 0 0.40625 "/>
<path style=" stroke:none;fill-rule:nonzero;fill:rgb(100%,100%,100%);fill-opacity:1;" d="M 0 0.40625 L 1190 0.40625 L 1190 1683.800781 L 0 1683.800781 Z M 0 0.40625 "/>
<path style=" stroke:none;fill-rule:nonzero;fill:rgb(94.509888%,94.119263%,94.119263%);fill-opacity:1;" d="M 0 0.40625 L 1190 0.40625 L 1190 1683.800781 L 0 1683.800781 Z M 0 0.40625 "/>
</g>
<path style=" stroke:none;fill-rule:nonzero;fill:rgb(0%,0%,0%);fill-opacity:1;" d="M 904.683594 1506.3125 C 852.320312 1414.734375 799.078125 1323.664062 745.722656 1232.652344 C 741.640625 1225.6875 740.003906 1218.953125 738.714844 1211.207031 C 716.925781 1080.53125 694.917969 949.898438 664.5625 820.832031 C 655.484375 782.230469 648.484375 743.140625 639.527344 699.355469 C 669.964844 717.359375 695.035156 731.824219 719.726562 746.90625 C 744.511719 762.054688 768.992188 777.710938 793.46875 793.351562 C 805.246094 800.875 818.265625 810.035156 828.65625 794.261719 C 837.90625 780.21875 828.484375 769.140625 816.902344 759.871094 C 783.457031 733.089844 746.832031 711.464844 708.914062 691.816406 C 623.035156 647.304688 623.101562 647.265625 606.457031 553.90625 C 604.179688 541.113281 605.175781 531.054688 614.777344 519.710938 C 642.71875 486.695312 654.632812 447.65625 652.421875 403.976562 C 648.464844 325.832031 590.585938 273.039062 512.742188 276.574219 C 490.726562 277.574219 470.519531 286.78125 448.320312 289.714844 C 458.136719 248.355469 538.882812 220.605469 585.941406 227.875 C 619.296875 233.03125 640.445312 251.195312 647.667969 284.542969 C 650.539062 297.777344 652.753906 311.160156 655.710938 324.375 C 661.410156 349.824219 665.195312 375.933594 679.203125 398.746094 C 705.96875 442.328125 764.097656 450.113281 798.980469 414.898438 C 807.980469 405.808594 812.960938 394.96875 805.152344 383.769531 C 797.546875 372.859375 788.492188 380.023438 779.746094 384.757812 C 739.066406 406.792969 717.21875 398.191406 704.503906 353.328125 C 696.601562 325.449219 692.363281 296.550781 685.4375 268.367188 C 678.480469 240.050781 663.710938 216.960938 637.523438 202.066406 C 572.980469 165.355469 461.464844 191.535156 421.570312 253.984375 C 414.765625 264.640625 408.710938 267.339844 396.402344 266.398438 C 328.632812 261.222656 277.273438 312.628906 280.769531 380.398438 C 282.191406 407.9375 290.5625 433.484375 300.398438 458.878906 C 310.203125 484.1875 319.355469 509.746094 317.988281 537.664062 C 315.453125 589.449219 283.160156 612.503906 235.386719 596.011719 C 225.824219 592.710938 215.90625 588.363281 209.507812 598.914062 C 202.21875 610.929688 207.929688 622.003906 218.1875 629.234375 C 250.125 651.742188 297.460938 666.902344 335.644531 623.394531 C 373.878906 579.820312 374.191406 530.207031 355.636719 478.824219 C 345.789062 451.558594 332.570312 425.492188 323 398.140625 C 312.171875 367.199219 317.695312 338.605469 343.199219 316.261719 C 367.023438 295.390625 392.96875 293.382812 420.996094 311.460938 C 395.246094 341.914062 376.277344 376.21875 367.765625 415.8125 C 347.476562 510.222656 414.292969 584.605469 509.449219 575.820312 C 530.015625 573.921875 552.753906 549.625 567.359375 566.476562 C 579.878906 580.921875 576.976562 608.722656 580.914062 630.617188 C 581.257812 632.523438 581.394531 634.546875 582.15625 636.28125 C 589.472656 652.941406 583.863281 661.265625 567.03125 668.742188 C 505.980469 695.859375 446.265625 725.886719 389.570312 761.375 C 372.859375 771.832031 347.988281 784.757812 362.40625 807.710938 C 374.839844 827.5 396.410156 810.757812 411.34375 802.152344 C 465.878906 770.757812 520.15625 738.8125 573.21875 705.019531 C 592.398438 692.804688 597.707031 695.941406 602.308594 716.855469 C 636.804688 873.722656 672.730469 1030.269531 697.910156 1189.042969 C 700.246094 1203.765625 698.398438 1215.066406 690.746094 1227.089844 C 646.347656 1296.8125 615.488281 1373.238281 582.289062 1448.460938 C 576.109375 1462.457031 572.550781 1477.746094 569.027344 1492.730469 C 566.878906 1501.882812 570.230469 1510.097656 579.738281 1514.207031 C 589.289062 1518.332031 597.835938 1514.488281 602.96875 1507.34375 C 610.234375 1497.21875 615.953125 1485.804688 621.167969 1474.410156 C 652.542969 1405.839844 683.582031 1337.121094 716.929688 1263.605469 C 724.214844 1276.472656 728.019531 1283.089844 731.730469 1289.765625 C 776.402344 1370.117188 818.402344 1452.066406 870.441406 1528.074219 C 879.25 1540.9375 887.722656 1565.421875 909.332031 1551.664062 C 930.667969 1538.070312 912.496094 1519.972656 904.683594 1506.3125 Z M 588.714844 488.25 C 550.699219 534.011719 474.148438 542.148438 428.769531 505.25 C 398.867188 480.933594 393.972656 429.105469 417.203125 384.097656 C 417.3125 384.042969 417.417969 383.984375 417.523438 383.929688 C 417.527344 383.761719 417.535156 383.59375 417.535156 383.425781 C 417.519531 383.441406 417.007812 383.949219 416.703125 384.257812 L 416.472656 384.484375 C 420.578125 357.1875 435.242188 335.445312 456.449219 319.625 C 478.875 302.890625 550.042969 311.640625 573.34375 331.347656 C 618.980469 369.953125 626.160156 443.179688 588.714844 488.25 Z M 571.851562 442.164062 C 552.53125 473.132812 525.027344 490.113281 482.285156 491.117188 C 482.507812 491.164062 476.867188 489.988281 471.214844 488.855469 C 457.550781 486.121094 441.230469 482.308594 443.101562 465.753906 C 445.339844 445.929688 464.175781 452.058594 476.019531 454.082031 C 506.769531 459.335938 528.160156 447.71875 544.992188 422.972656 C 551.078125 414.027344 557.859375 399.941406 571.984375 409.300781 C 586.222656 418.738281 578.792969 431.03125 571.851562 442.164062 Z M 527.898438 362.527344 C 528.386719 350.796875 532.855469 342.332031 546.3125 342.253906 C 559.082031 343.902344 564.382812 351.691406 563.96875 363.785156 C 563.539062 376.429688 556.613281 383.558594 544.050781 382.265625 C 533.226562 381.148438 527.433594 373.714844 527.898438 362.527344 Z M 417.523438 383.925781 C 421.441406 381.886719 425.242188 379.414062 429.40625 378.269531 C 443.023438 374.527344 452.746094 379.488281 455.453125 393.527344 C 457.914062 406.300781 450.429688 414.390625 438.503906 416.140625 C 425.777344 418.007812 418.652344 410.511719 417.480469 397.882812 C 417.050781 393.265625 417.464844 388.570312 417.523438 383.925781 Z M 417.523438 383.925781 "/>
</g>
</svg>
